<svg fill="none" height="222" viewBox="0 0 397 222" width="397" xmlns="http://www.w3.org/2000/svg" xmlns:xlink="http://www.w3.org/1999/xlink"><linearGradient id="a" gradientUnits="userSpaceOnUse" x1="222.5" x2="222" y1="37.0161" y2="187"><stop offset="0" stop-color="#109cf1"/><stop offset="1" stop-color="#109cf1" stop-opacity="0"/></linearGradient><mask id="b" height="176" maskUnits="userSpaceOnUse" width="365" x="32" y="10"><path d="m32 10h365v176h-365z" fill="#c4c4c4"/></mask><g fill="#4c5862"><path d="m32.156 207.56v-1.02h2.424v8.46h-1.152v-7.44zm14.4982 3.204c0 .856-.172 1.604-.516 2.244-.344.632-.852 1.124-1.524 1.476-.664.344-1.464.516-2.4.516h-2.688v-8.46h2.688c.936 0 1.736.172 2.4.516.672.336 1.18.824 1.524 1.464.344.632.516 1.38.516 2.244zm-4.524 3.252c1.104 0 1.948-.284 2.532-.852s.876-1.368.876-2.4-.292-1.832-.876-2.4c-.576-.576-1.42-.864-2.532-.864h-1.512v6.516zm12.1775-2.676c0 .232-.016.432-.048.6h-5.268c.024.752.236 1.316.636 1.692.408.376.904.564 1.488.564.528 0 .968-.132 1.32-.396.36-.272.58-.632.66-1.08h1.164c-.08.456-.26.864-.54 1.224-.272.36-.628.64-1.068.84s-.936.3-1.488.3c-.632 0-1.192-.136-1.68-.408s-.872-.66-1.152-1.164c-.272-.512-.408-1.112-.408-1.8s.136-1.288.408-1.8c.28-.512.664-.904 1.152-1.176s1.048-.408 1.68-.408c.64 0 1.196.136 1.668.408.48.272.844.636 1.092 1.092.256.456.384.96.384 1.512zm-1.104.072c.024-.488-.056-.896-.24-1.224s-.436-.572-.756-.732-.668-.24-1.044-.24c-.6 0-1.104.188-1.512.564-.408.368-.628.912-.66 1.632zm5.5683-3.084c.84 0 1.536.224 2.088.672s.892 1.048 1.02 1.8h-1.152c-.08-.472-.3-.84-.66-1.104-.352-.272-.792-.408-1.32-.408-.384 0-.736.088-1.056.264-.312.176-.564.448-.756.816-.192.36-.288.808-.288 1.344s.096.988.288 1.356c.192.36.444.628.756.804.32.176.672.264 1.056.264.528 0 .968-.136 1.32-.408.36-.272.58-.644.66-1.116h1.152c-.128.76-.468 1.364-1.02 1.812-.552.44-1.248.66-2.088.66-.632 0-1.192-.136-1.68-.408s-.872-.66-1.152-1.164c-.272-.512-.408-1.112-.408-1.8s.136-1.288.408-1.8c.28-.512.664-.904 1.152-1.176s1.048-.408 1.68-.408z"/><path d="m.684 184.716c0 1.36.224 2.42.672 3.18s1.224 1.14 2.328 1.14 1.88-.38 2.328-1.14c.456-.76.684-1.82.684-3.18 0-1.344-.228-2.396-.684-3.156-.448-.76-1.224-1.14-2.328-1.14s-1.88.38-2.328 1.14c-.448.752-.672 1.804-.672 3.156zm4.932 0c0 .696-.052 1.28-.156 1.752-.096.464-.284.836-.564 1.116s-.684.42-1.212.42c-.52 0-.92-.14-1.2-.42s-.472-.652-.576-1.116c-.096-.472-.144-1.056-.144-1.752 0-.688.048-1.264.144-1.728.104-.464.296-.832.576-1.104.28-.28.68-.42 1.2-.42.528 0 .932.14 1.212.42.28.272.468.64.564 1.104.104.464.156 1.04.156 1.728z"/><path d="m6.384 137.404h-4.344v2.832c.2-.272.488-.488.864-.648s.788-.24 1.236-.24c.6 0 1.096.128 1.488.384.4.248.692.58.876.996.192.408.288.864.288 1.368 0 .872-.244 1.584-.732 2.136s-1.204.828-2.148.828c-.848 0-1.54-.228-2.076-.684-.536-.464-.836-1.084-.9-1.86h1.08c.088.496.292.884.612 1.164.328.272.74.408 1.236.408.616 0 1.08-.184 1.392-.552s.468-.852.468-1.452c0-.584-.16-1.04-.48-1.368s-.772-.492-1.356-.492c-.416 0-.78.092-1.092.276-.312.176-.548.416-.708.72h-1.056v-4.788h5.352zm1.81453 3.312c0 1.36.224 2.42.672 3.18s1.22397 1.14 2.32797 1.14 1.88-.38 2.328-1.14c.456-.76.684-1.82.684-3.18 0-1.344-.228-2.396-.684-3.156-.448-.76-1.224-1.14-2.328-1.14s-1.87997.38-2.32797 1.14c-.448.752-.672 1.804-.672 3.156zm4.93197 0c0 .696-.052 1.28-.156 1.752-.096.464-.284.836-.564 1.116s-.684.42-1.212.42c-.52 0-.92-.14-1.19997-.42-.28-.28-.472-.652-.576-1.116-.096-.472-.144-1.056-.144-1.752 0-.688.048-1.264.144-1.728.104-.464.296-.832.576-1.104.27997-.28.67997-.42 1.19997-.42.528 0 .932.14 1.212.42.28.272.468.64.564 1.104.104.464.156 1.04.156 1.728z"/><path d="m.156 93.56v-1.02h2.424v8.46h-1.152v-7.44zm4.09331 3.156c0 1.36.224 2.42.672 3.18s1.224 1.14 2.328 1.14 1.88-.38 2.328-1.14c.45599-.76.68399-1.82.68399-3.18 0-1.344-.228-2.396-.68399-3.156-.448-.76-1.224-1.14-2.328-1.14s-1.88.38-2.328 1.14c-.448.752-.672 1.804-.672 3.156zm4.932 0c0 .696-.052 1.28-.156 1.752-.096.464-.284.836-.564 1.116s-.684.42-1.212.42c-.52 0-.92-.14-1.2-.42s-.472-.652-.576-1.116c-.096-.472-.144-1.056-.144-1.752 0-.688.048-1.264.144-1.728.104-.464.296-.832.576-1.104.28-.28.68-.42 1.2-.42.528 0 .932.14 1.212.42.28.272.468.64.564 1.104.104.464.156 1.04.156 1.728zm2.55909 0c0 1.36.224 2.42.672 3.18s1.224 1.14 2.328 1.14 1.88-.38 2.328-1.14c.456-.76.684-1.82.684-3.18 0-1.344-.228-2.396-.684-3.156-.448-.76-1.224-1.14-2.328-1.14s-1.88.38-2.328 1.14c-.448.752-.672 1.804-.672 3.156zm4.932 0c0 .696-.052 1.28-.156 1.752-.096.464-.284.836-.564 1.116s-.684.42-1.212.42c-.52 0-.92-.14-1.2-.42s-.472-.652-.576-1.116c-.096-.472-.144-1.056-.144-1.752 0-.688.048-1.264.144-1.728.104-.464.296-.832.576-1.104.28-.28.68-.42 1.2-.42.528 0 .932.14 1.212.42.28.272.468.64.564 1.104.104.464.156 1.04.156 1.728z"/><path d="m.156 49.56v-1.02h2.424v8.46h-1.152v-7.44zm9.79331-.156h-4.344v2.832c.2-.272.488-.488.864-.648s.788-.24 1.236-.24c.6 0 1.096.128 1.488.384.4.248.692.58.87599.996.192.408.288.864.288 1.368 0 .872-.244 1.584-.73199 2.136-.488.552-1.204.828-2.148.828-.848 0-1.54-.228-2.076-.684-.536-.464-.836-1.084-.9-1.86h1.08c.088.496.292.884.612 1.164.328.272.74.408 1.236.408.616 0 1.08-.184 1.392-.552s.468-.852.468-1.452c0-.584-.16-1.04-.48-1.368s-.772-.492-1.356-.492c-.416 0-.78.092-1.092.276-.312.176-.548.416-.708.72h-1.056v-4.788h5.352zm1.81449 3.312c0 1.36.224 2.42.672 3.18s1.224 1.14 2.328 1.14 1.88-.38 2.328-1.14c.456-.76.684-1.82.684-3.18 0-1.344-.228-2.396-.684-3.156-.448-.76-1.224-1.14-2.328-1.14s-1.88.38-2.328 1.14c-.448.752-.672 1.804-.672 3.156zm4.932 0c0 .696-.052 1.28-.156 1.752-.096.464-.284.836-.564 1.116s-.684.42-1.212.42c-.52 0-.92-.14-1.2-.42s-.472-.652-.576-1.116c-.096-.472-.144-1.056-.144-1.752 0-.688.048-1.264.144-1.728.104-.464.296-.832.576-1.104.28-.28.68-.42 1.2-.42.528 0 .932.14 1.212.42.28.272.468.64.564 1.104.104.464.156 1.04.156 1.728z"/><path d="m.504 12.16c1.36-.912 2.448-1.816 3.264-2.712.816-.904 1.224-1.744 1.224-2.52 0-.48-.124-.864-.372-1.152-.24-.296-.632-.444-1.176-.444-.56 0-.984.18-1.272.54-.288.352-.448.84-.48 1.464h-1.08c.056-.944.348-1.668.876-2.172.528-.512 1.208-.768 2.04-.768.792 0 1.42.212 1.884.636s.696 1.024.696 1.8c0 .64-.208 1.292-.624 1.956-.408.656-.924 1.268-1.548 1.836-.616.56-1.252 1.036-1.908 1.428h4.296v.9h-5.82zm7.10859-3.444c0 1.36.224 2.42.672 3.18s1.224 1.14 2.32801 1.14c1.104 0 1.88-.38 2.328-1.14.456-.76.684-1.82.684-3.18 0-1.344-.228-2.396-.684-3.156-.448-.76-1.224-1.14-2.328-1.14-1.10401 0-1.88001.38-2.32801 1.14-.448.752-.672 1.804-.672 3.156zm4.93201 0c0 .696-.052 1.28-.156 1.752-.096.464-.284.836-.564 1.116s-.684.42-1.212.42c-.52 0-.92001-.14-1.20001-.42s-.472-.652-.576-1.116c-.096-.472-.144-1.056-.144-1.752 0-.688.048-1.264.144-1.728.104-.464.296-.832.576-1.104.28-.28.68001-.42 1.20001-.42.528 0 .932.14 1.212.42.28.272.468.64.564 1.104.104.464.156 1.04.156 1.728zm2.5591 0c0 1.36.224 2.42.672 3.18s1.224 1.14 2.328 1.14 1.88-.38 2.328-1.14c.456-.76.684-1.82.684-3.18 0-1.344-.228-2.396-.684-3.156-.448-.76-1.224-1.14-2.328-1.14s-1.88.38-2.328 1.14c-.448.752-.672 1.804-.672 3.156zm4.932 0c0 .696-.052 1.28-.156 1.752-.096.464-.284.836-.564 1.116s-.684.42-1.212.42c-.52 0-.92-.14-1.2-.42s-.472-.652-.576-1.116c-.096-.472-.144-1.056-.144-1.752 0-.688.048-1.264.144-1.728.104-.464.296-.832.576-1.104.28-.28.68-.42 1.2-.42.528 0 .932.14 1.212.42.28.272.468.64.564 1.104.104.464.156 1.04.156 1.728z"/><path d="m360.588 206.312c.544 0 1.012.096 1.404.288s.688.456.888.792.3.716.3 1.14c0 .528-.156.972-.468 1.332-.304.36-.752.576-1.344.648v.072c.616.16 1.096.408 1.44.744.352.336.528.8.528 1.392 0 .696-.232 1.264-.696 1.704s-1.132.66-2.004.66-1.58-.224-2.124-.672c-.536-.456-.852-1.12-.948-1.992h1.08c.072.528.272.948.6 1.26.336.312.788.468 1.356.468.536 0 .948-.136 1.236-.408.288-.28.432-.64.432-1.08 0-.528-.208-.928-.624-1.2-.408-.28-.992-.42-1.752-.42h-.288v-.912h.288c1.472 0 2.208-.492 2.208-1.476 0-.432-.136-.776-.408-1.032s-.648-.384-1.128-.384-.884.14-1.212.42c-.328.272-.52.676-.576 1.212h-1.068c.056-.8.332-1.424.828-1.872.504-.456 1.188-.684 2.052-.684zm3.754 1.248v-1.02h2.424v8.46h-1.152v-7.44zm14.499 3.204c0 .856-.172 1.604-.516 2.244-.344.632-.852 1.124-1.524 1.476-.664.344-1.464.516-2.4.516h-2.688v-8.46h2.688c.936 0 1.736.172 2.4.516.672.336 1.18.824 1.524 1.464.344.632.516 1.38.516 2.244zm-4.524 3.252c1.104 0 1.948-.284 2.532-.852s.876-1.368.876-2.4-.292-1.832-.876-2.4c-.576-.576-1.42-.864-2.532-.864h-1.512v6.516zm12.177-2.676c0 .232-.016.432-.048.6h-5.268c.024.752.236 1.316.636 1.692.408.376.904.564 1.488.564.528 0 .968-.132 1.32-.396.36-.272.58-.632.66-1.08h1.164c-.08.456-.26.864-.54 1.224-.272.36-.628.64-1.068.84s-.936.3-1.488.3c-.632 0-1.192-.136-1.68-.408s-.872-.66-1.152-1.164c-.272-.512-.408-1.112-.408-1.8s.136-1.288.408-1.8c.28-.512.664-.904 1.152-1.176s1.048-.408 1.68-.408c.64 0 1.196.136 1.668.408.48.272.844.636 1.092 1.092.256.456.384.96.384 1.512zm-1.104.072c.024-.488-.056-.896-.24-1.224s-.436-.572-.756-.732-.668-.24-1.044-.24c-.6 0-1.104.188-1.512.564-.408.368-.628.912-.66 1.632zm5.568-3.084c.84 0 1.536.224 2.088.672s.892 1.048 1.02 1.8h-1.152c-.08-.472-.3-.84-.66-1.104-.352-.272-.792-.408-1.32-.408-.384 0-.736.088-1.056.264-.312.176-.564.448-.756.816-.192.36-.288.808-.288 1.344s.096.988.288 1.356c.192.36.444.628.756.804.32.176.672.264 1.056.264.528 0 .968-.136 1.32-.408.36-.272.58-.644.66-1.116h1.152c-.128.76-.468 1.364-1.02 1.812-.552.44-1.248.66-2.088.66-.632 0-1.192-.136-1.68-.408s-.872-.66-1.152-1.164c-.272-.512-.408-1.112-.408-1.8s.136-1.288.408-1.8c.28-.512.664-.904 1.152-1.176s1.048-.408 1.68-.408z"/><path d="m140.852 208.532c0-.416.112-.796.336-1.14s.556-.616.996-.816.964-.3 1.572-.3 1.128.1 1.56.3c.44.2.772.472.996.816s.336.724.336 1.14c0 .472-.128.88-.384 1.224s-.644.588-1.164.732c.56.152.996.416 1.308.792s.468.84.468 1.392c0 .8-.284 1.428-.852 1.884s-1.324.684-2.268.684-1.7-.228-2.268-.684-.852-1.084-.852-1.884c0-.552.152-1.016.456-1.392.312-.376.748-.64 1.308-.792-.52-.144-.908-.388-1.164-.732s-.384-.752-.384-1.224zm1.08.156c0 .48.164.852.492 1.116.328.256.772.384 1.332.384s1-.128 1.32-.384c.328-.264.492-.636.492-1.116s-.164-.848-.492-1.104c-.328-.264-.768-.396-1.32-.396s-.996.132-1.332.396c-.328.256-.492.624-.492 1.104zm-.228 3.924c0 .544.184.968.552 1.272.368.296.868.444 1.5.444.624 0 1.12-.152 1.488-.456s.552-.724.552-1.26c0-.544-.192-.956-.576-1.236s-.872-.42-1.464-.42c-.6 0-1.092.14-1.476.42s-.576.692-.576 1.236zm17.005-1.848c0 .856-.172 1.604-.516 2.244-.344.632-.852 1.124-1.524 1.476-.664.344-1.464.516-2.4.516h-2.688v-8.46h2.688c.936 0 1.736.172 2.4.516.672.336 1.18.824 1.524 1.464.344.632.516 1.38.516 2.244zm-4.524 3.252c1.104 0 1.948-.284 2.532-.852s.876-1.368.876-2.4-.292-1.832-.876-2.4c-.576-.576-1.42-.864-2.532-.864h-1.512v6.516zm12.177-2.676c0 .232-.016.432-.048.6h-5.268c.024.752.236 1.316.636 1.692.408.376.904.564 1.488.564.528 0 .968-.132 1.32-.396.36-.272.58-.632.66-1.08h1.164c-.08.456-.26.864-.54 1.224-.272.36-.628.64-1.068.84s-.936.3-1.488.3c-.632 0-1.192-.136-1.68-.408s-.872-.66-1.152-1.164c-.272-.512-.408-1.112-.408-1.8s.136-1.288.408-1.8c.28-.512.664-.904 1.152-1.176s1.048-.408 1.68-.408c.64 0 1.196.136 1.668.408.48.272.844.636 1.092 1.092.256.456.384.96.384 1.512zm-1.104.072c.024-.488-.056-.896-.24-1.224s-.436-.572-.756-.732-.668-.24-1.044-.24c-.6 0-1.104.188-1.512.564-.408.368-.628.912-.66 1.632zm5.569-3.084c.84 0 1.536.224 2.088.672s.892 1.048 1.02 1.8h-1.152c-.08-.472-.3-.84-.66-1.104-.352-.272-.792-.408-1.32-.408-.384 0-.736.088-1.056.264-.312.176-.564.448-.756.816-.192.36-.288.808-.288 1.344s.096.988.288 1.356c.192.36.444.628.756.804.32.176.672.264 1.056.264.528 0 .968-.136 1.32-.408.36-.272.58-.644.66-1.116h1.152c-.128.76-.468 1.364-1.02 1.812-.552.44-1.248.66-2.088.66-.632 0-1.192-.136-1.68-.408s-.872-.66-1.152-1.164c-.272-.512-.408-1.112-.408-1.8s.136-1.288.408-1.8c.28-.512.664-.904 1.152-1.176s1.048-.408 1.68-.408z"/><path d="m249.156 207.56v-1.02h2.424v8.46h-1.152v-7.44zm8.869 1.236c-.064-.504-.236-.892-.516-1.164-.272-.28-.652-.42-1.14-.42-.68 0-1.196.264-1.548.792-.344.528-.516 1.364-.516 2.508l.012.444c.12-.48.396-.86.828-1.14.432-.288.94-.432 1.524-.432.84 0 1.496.252 1.968.756.48.504.72 1.208.72 2.112 0 .528-.104 1.008-.312 1.44-.208.424-.528.764-.96 1.02-.424.248-.952.372-1.584.372-1.208 0-2.04-.38-2.496-1.14-.448-.76-.672-1.792-.672-3.096 0-1.504.24-2.632.72-3.384.488-.76 1.28-1.14 2.376-1.14.808 0 1.428.228 1.86.684.44.456.7 1.052.78 1.788zm-3.588 3.276c0 .584.168 1.076.504 1.476.344.392.856.588 1.536.588.56 0 1.008-.164 1.344-.492.336-.336.504-.804.504-1.404 0-.648-.168-1.14-.504-1.476-.336-.344-.8-.516-1.392-.516-.336 0-.656.068-.96.204s-.552.344-.744.624c-.192.272-.288.604-.288.996zm16.79-1.308c0 .856-.172 1.604-.516 2.244-.344.632-.852 1.124-1.524 1.476-.664.344-1.464.516-2.4.516h-2.688v-8.46h2.688c.936 0 1.736.172 2.4.516.672.336 1.18.824 1.524 1.464.344.632.516 1.38.516 2.244zm-4.524 3.252c1.104 0 1.948-.284 2.532-.852s.876-1.368.876-2.4-.292-1.832-.876-2.4c-.576-.576-1.42-.864-2.532-.864h-1.512v6.516zm12.178-2.676c0 .232-.016.432-.048.6h-5.268c.024.752.236 1.316.636 1.692.408.376.904.564 1.488.564.528 0 .968-.132 1.32-.396.36-.272.58-.632.66-1.08h1.164c-.08.456-.26.864-.54 1.224-.272.36-.628.64-1.068.84s-.936.3-1.488.3c-.632 0-1.192-.136-1.68-.408s-.872-.66-1.152-1.164c-.272-.512-.408-1.112-.408-1.8s.136-1.288.408-1.8c.28-.512.664-.904 1.152-1.176s1.048-.408 1.68-.408c.64 0 1.196.136 1.668.408.48.272.844.636 1.092 1.092.256.456.384.96.384 1.512zm-1.104.072c.024-.488-.056-.896-.24-1.224s-.436-.572-.756-.732-.668-.24-1.044-.24c-.6 0-1.104.188-1.512.564-.408.368-.628.912-.66 1.632zm5.568-3.084c.84 0 1.536.224 2.088.672s.892 1.048 1.02 1.8h-1.152c-.08-.472-.3-.84-.66-1.104-.352-.272-.792-.408-1.32-.408-.384 0-.736.088-1.056.264-.312.176-.564.448-.756.816-.192.36-.288.808-.288 1.344s.096.988.288 1.356c.192.36.444.628.756.804.32.176.672.264 1.056.264.528 0 .968-.136 1.32-.408.36-.272.58-.644.66-1.116h1.152c-.128.76-.468 1.364-1.02 1.812-.552.44-1.248.66-2.088.66-.632 0-1.192-.136-1.68-.408s-.872-.66-1.152-1.164c-.272-.512-.408-1.112-.408-1.8s.136-1.288.408-1.8c.28-.512.664-.904 1.152-1.176s1.048-.408 1.68-.408z"/></g><path d="m305 10v175" stroke="#c2cfe0"/><path d="m32 185.5h365" stroke="#d3d8dd" stroke-dasharray="8 8" stroke-miterlimit="16"/><path d="m32 141.5h365" stroke="#d3d8dd" stroke-dasharray="8 8" stroke-miterlimit="16"/><path d="m32 97.5h365" stroke="#d3d8dd" stroke-dasharray="8 8" stroke-miterlimit="16"/><path d="m32 53.5h365" stroke="#d3d8dd" stroke-dasharray="8 8" stroke-miterlimit="16"/><path d="m32 9.5h365" stroke="#d3d8dd" stroke-dasharray="8 8" stroke-miterlimit="16"/><g mask="url(#b)"><path d="m91.7189 98.988c-29.5337-.8698-57.6183 39.979-65.2189 57.012v31h392l-13.5-134.5001c-30 7.5-62-7.5-71.148-7.8735-20.63 0-51.394 42.7638-65.148 65.2326-11.292 20.005-25.697 24.282-31.488 23.919-26.928.87-47.413-43.8508-54.29-66.3198-6.08-25.2238-12.926-30.4421-16.287-30.4421-5.639-.0162-14.115 7.3931-22.802 32.6165-8.686 25.2234-22.44 32.2544-28.23 32.6164-8.1.507-17.7352-3.2612-23.8881-3.261z" fill="url(#a)" opacity=".2"/><g stroke="#109cf1" stroke-width="2"><path d="m26.5 156c7.6006-17.033 35.6852-57.8818 65.2189-57.012 6.1529-.0002 15.7881 3.768 23.8881 3.261 5.79-.362 19.544-7.393 28.23-32.6164 8.687-25.2234 17.163-32.6327 22.802-32.6165 3.361 0 10.207 5.2183 16.287 30.4421 6.877 22.469 27.362 67.1898 54.29 66.3198 5.791.363 20.196-3.914 31.488-23.919 13.754-22.4688 44.518-65.2326 65.148-65.2326 9.148.3735 41.148 15.3735 71.148 7.8735" stroke-linejoin="round"/><circle cx="305" cy="62" fill="#fff" r="4"/></g></g><rect fill="#192a3e" height="24" opacity=".6" rx="12" width="46" x="318" y="50"/><path d="m332.374 59.411v-1.177h2.486v7.766h-1.32v-6.589zm3.725 4.917v-1.056l3.861-5.104h1.342v5.06h1.089v1.1h-1.089v1.672h-1.265v-1.672zm4.026-4.664-2.728 3.564h2.728zm7.51.66c-.132-.8653-.583-1.298-1.353-1.298-.557 0-.975.2237-1.254.671-.279.44-.418 1.133-.418 2.079l.011.374c.11-.396.348-.7113.715-.946s.799-.352 1.298-.352c.763 0 1.36.2273 1.793.682s.649 1.0963.649 1.925c0 .4987-.099.946-.297 1.342-.198.3887-.495.7003-.891.935-.396.2273-.884.341-1.463.341-1.122 0-1.892-.3483-2.31-1.045s-.627-1.6537-.627-2.871c0-1.3933.224-2.4347.671-3.124s1.181-1.034 2.2-1.034c.763 0 1.346.2163 1.749.649.411.4327.649.99.715 1.672zm-2.904 2.992c0 .4767.139.8763.418 1.199.279.3153.689.473 1.232.473.462 0 .829-.1357 1.1-.407.279-.2713.418-.649.418-1.133 0-.5207-.139-.9203-.418-1.199s-.656-.418-1.133-.418c-.433 0-.81.1283-1.133.385s-.484.6233-.484 1.1z" fill="#fff"/></svg>