<svg fill="none" height="232" viewBox="0 0 232 232" width="232" xmlns="http://www.w3.org/2000/svg"><circle cx="116" cy="116" r="112" stroke="#ffb946" stroke-width="8"/><path d="m83.1792 102.64c-.4107-1.717-1.1573-3.0053-2.24-3.864s-2.5947-1.288-4.536-1.288c-2.9493 0-5.152 1.1387-6.608 3.416-1.456 2.24-2.2213 5.973-2.296 11.2.9707-1.643 2.3893-2.912 4.256-3.808s3.8827-1.344 6.048-1.344c2.464 0 4.6293.541 6.496 1.624 1.904 1.045 3.3787 2.576 4.424 4.592 1.0827 2.016 1.624 4.424 1.624 7.224 0 2.613-.5227 4.947-1.568 7-1.008 2.053-2.52 3.677-4.536 4.872-2.016 1.157-4.4427 1.736-7.28 1.736-3.8453 0-6.8693-.84-9.072-2.52-2.1653-1.717-3.696-4.125-4.592-7.224-.8587-3.099-1.288-6.963-1.288-11.592 0-13.664 4.816-20.496 14.448-20.496 3.7333 0 6.664 1.008 8.792 3.024 2.1653 2.016 3.4347 4.4987 3.808 7.448zm-6.776 9.688c-2.2773 0-4.2187.691-5.824 2.072-1.568 1.344-2.352 3.304-2.352 5.88s.728 4.629 2.184 6.16c1.4933 1.493 3.5653 2.24 6.216 2.24 2.352 0 4.2-.728 5.544-2.184 1.3813-1.456 2.072-3.397 2.072-5.824 0-2.539-.672-4.555-2.016-6.048-1.3067-1.531-3.248-2.296-5.824-2.296zm20.7537.728c0-6.459 1.0826-11.499 3.2481-15.12 2.203-3.6587 5.973-5.488 11.312-5.488s9.091 1.8293 11.256 5.488c2.203 3.621 3.304 8.661 3.304 15.12 0 6.533-1.101 11.648-3.304 15.344-2.165 3.659-5.917 5.488-11.256 5.488s-9.109-1.829-11.312-5.488c-2.1655-3.696-3.2481-8.811-3.2481-15.344zm22.8481 0c0-3.024-.205-5.581-.616-7.672-.373-2.091-1.157-3.789-2.352-5.096-1.195-1.344-2.968-2.016-5.32-2.016s-4.125.672-5.32 2.016c-1.195 1.307-1.997 3.005-2.408 5.096-.373 2.091-.56 4.648-.56 7.672 0 3.136.187 5.768.56 7.896s1.157 3.845 2.352 5.152c1.232 1.307 3.024 1.96 5.376 1.96s4.125-.653 5.32-1.96c1.232-1.307 2.035-3.024 2.408-5.152s.56-4.76.56-7.896zm12.019-10.024c0-2.725.784-4.8533 2.352-6.384 1.605-1.568 3.659-2.352 6.16-2.352s4.536.784 6.104 2.352c1.605 1.5307 2.408 3.659 2.408 6.384s-.803 4.872-2.408 6.44c-1.568 1.568-3.603 2.352-6.104 2.352s-4.555-.784-6.16-2.352c-1.568-1.568-2.352-3.715-2.352-6.44zm34.16-8.008-22.344 38.976h-6.272l22.344-38.976zm-25.648 3.136c-2.352 0-3.528 1.624-3.528 4.872 0 3.285 1.176 4.928 3.528 4.928 1.12 0 1.979-.392 2.576-1.176.635-.821.952-2.072.952-3.752 0-3.248-1.176-4.872-3.528-4.872zm14.28 27.776c0-2.725.784-4.853 2.352-6.384 1.605-1.568 3.659-2.352 6.16-2.352 2.464 0 4.48.784 6.048 2.352 1.605 1.531 2.408 3.659 2.408 6.384s-.803 4.872-2.408 6.44c-1.568 1.568-3.584 2.352-6.048 2.352-2.501 0-4.555-.784-6.16-2.352-1.568-1.568-2.352-3.715-2.352-6.44zm8.456-4.872c-2.352 0-3.528 1.624-3.528 4.872s1.176 4.872 3.528 4.872 3.528-1.624 3.528-4.872-1.176-4.872-3.528-4.872z" fill="#2ed47a"/><g stroke-linecap="round" stroke-width="8"><path d="m228 116c0-20.6667-5.718-40.9305-16.522-58.5486-10.804-17.618-26.271-31.9033-44.691-41.2747-18.42-9.37142-39.074-13.46352-59.675-11.82341-20.6019 1.64012-40.348 8.94851-57.0531 21.11621-16.7051 12.1678-29.7178 28.7204-37.5979 47.8259-7.88003 19.1055-10.32015 40.0186-7.05026 60.4256 3.26989 20.406 12.12226 39.51 25.57736 55.197 13.4551 15.686 30.9882 27.344 50.6588 33.683" stroke="#f7685b"/><path d="m228 116c0-17.6747-4.183-35.0986-12.207-50.8469-8.024-15.7484-19.662-29.374-33.961-39.763s-30.854-17.24624-48.311-20.01118-35.3212-1.35904-52.1309 4.10277-32.0881 14.82441-44.5861 27.32241c-12.4979 12.4979-21.8605 27.7763-27.32232 44.586-5.4618 16.8097-6.8677 34.6739-4.10276 52.1309s9.62228 34.012 20.01118 48.311" stroke="#2ed47a" stroke-linejoin="round"/></g></svg>