<svg fill="none" height="24" viewBox="0 0 24 24" width="24" xmlns="http://www.w3.org/2000/svg"><path d="m19.5 18.2071v.2929h-15v-.2929l1.85355-1.8535.14645-.1465v-.2071-5c0-2.90563 1.52219-5.21908 4.1153-5.83347l.3847-.09115v-.39538-.68c0-.55386.4461-1 1-1s1 .44614 1 1v.68.39506l.3843.09138c2.5838.61432 4.1157 2.93838 4.1157 5.83356v5 .2071l.1464.1465zm-6.0865 2.2929c-.2074.5806-.7647 1-1.4135 1-.6557 0-1.2093-.4187-1.4146-1z" fill="#fff" stroke="#c2cfe0"/><circle cx="17" cy="6" fill="#f7685b" r="4.5" stroke="#fff"/></svg>