<svg fill="none" height="20" viewBox="0 0 20 20" width="20" xmlns="http://www.w3.org/2000/svg" xmlns:xlink="http://www.w3.org/1999/xlink"><clipPath id="a"><path d="m0 0h20v20h-20z"/></clipPath><g clip-path="url(#a)"><path d="m12.9167 11.6667h-.6584l-.2333-.225c.8167-.95 1.3083-2.18337 1.3083-3.52503 0-2.99167-2.425-5.41667-5.41663-5.41667-2.99167 0-5.41667 2.425-5.41667 5.41667 0 2.99163 2.425 5.41663 5.41667 5.41663 1.34166 0 2.57503-.4916 3.52503-1.3083l.225.2333v.6584l4.1666 4.1583 1.2417-1.2417zm-5.00003 0c-2.075 0-3.75-1.67503-3.75-3.75003s1.675-3.75 3.75-3.75 3.75003 1.675 3.75003 3.75-1.67503 3.75003-3.75003 3.75003z" fill="#c2cfe0"/></g></svg>