<svg fill="none" height="20" viewBox="0 0 20 20" width="20" xmlns="http://www.w3.org/2000/svg" xmlns:xlink="http://www.w3.org/1999/xlink"><clipPath id="a"><path d="m0 0h20v20h-20z"/></clipPath><g clip-path="url(#a)"><path d="m6.81118 6.11106c0-1.76201 1.42688-3.18889 3.18892-3.18889 1.762 0 3.1889 1.42687 3.1889 3.18889 0 1.76201-1.4269 3.18889-3.1889 3.18889-1.76204 0-3.18892-1.42688-3.18892-3.18889zm-3.88889 8.75004c0-.3895.18952-.7824.625-1.1843.44023-.4063 1.0835-.7728 1.85076-1.0802 1.53565-.6152 3.39161-.9244 4.60205-.9244 1.2104 0 3.0663.3092 4.602.9244.7672.3074 1.4105.6739 1.8507 1.0802.4355.4019.625.7948.625 1.1843v2.2166h-14.15551z" stroke="#c2cfe0" stroke-width="1.4"/></g></svg>