<svg fill="none" height="20" viewBox="0 0 20 20" width="20" xmlns="http://www.w3.org/2000/svg" xmlns:xlink="http://www.w3.org/1999/xlink"><clipPath id="a"><path d="m0 0h20v20h-20z"/></clipPath><g clip-path="url(#a)"><path d="m8.16667 10.1333h-4.66667c-.16569 0-.3-.13428-.3-.29997v-6.33333c0-.16569.13431-.3.3-.3h4.66667c.16568 0 .3.13431.3.3v6.33333c0 .16569-.13432.29997-.3.29997zm0 6.6667h-4.66667c-.16569 0-.3-.1343-.3-.3v-3c0-.1657.13431-.3.3-.3h4.66667c.16568 0 .3.1343.3.3v3c0 .1657-.13432.3-.3.3zm8.33333 0h-4.6667c-.1657 0-.3-.1343-.3-.3v-6.3333c0-.1657.1343-.30003.3-.30003h4.6667c.1657 0 .3.13433.3.30003v6.3333c0 .1657-.1343.3-.3.3zm-4.9667-10.3v-3c0-.16569.1343-.3.3-.3h4.6667c.1657 0 .3.13431.3.3v3c0 .16569-.1343.3-.3.3h-4.6667c-.1657 0-.3-.13431-.3-.3z" stroke="#109cf1" stroke-width="1.4"/></g></svg>