<svg fill="none" height="20" viewBox="0 0 20 20" width="20" xmlns="http://www.w3.org/2000/svg" xmlns:xlink="http://www.w3.org/1999/xlink"><clipPath id="a"><path d="m0 0h20v20h-20z"/></clipPath><g clip-path="url(#a)"><path d="m5.00004 8.33325c-.91667 0-1.66667.75-1.66667 1.66667 0 .91668.75 1.66668 1.66667 1.66668s1.66667-.75 1.66667-1.66668c0-.91667-.75-1.66667-1.66667-1.66667zm9.99996 0c-.9166 0-1.6666.75-1.6666 1.66667 0 .91668.75 1.66668 1.6666 1.66668.9167 0 1.6667-.75 1.6667-1.66668 0-.91667-.75-1.66667-1.6667-1.66667zm-5 0c-.91663 0-1.66663.75-1.66663 1.66667 0 .91668.75 1.66668 1.66663 1.66668.9167 0 1.6667-.75 1.6667-1.66668 0-.91667-.75-1.66667-1.6667-1.66667z" fill="#c2cfe0"/></g></svg>