<svg fill="none" height="20" viewBox="0 0 20 20" width="20" xmlns="http://www.w3.org/2000/svg" xmlns:xlink="http://www.w3.org/1999/xlink"><clipPath id="a"><path d="m0 0h20v20h-20z"/></clipPath><g clip-path="url(#a)"><path d="m2.49996 3.2h14.16664c.0718 0 .1334.0616.1334.13333v5c0 .07174-.0616.13334-.1334.13334h-14.16664c-.07173 0-.13333-.0616-.13333-.13334v-5c0-.07173.0616-.13333.13333-.13333zm0 8.3333h14.16664c.0718 0 .1334.0616.1334.1334v5c0 .0717-.0616.1333-.1334.1333h-14.16664c-.07173 0-.13333-.0616-.13333-.1333v-5c0-.0718.0616-.1334.13333-.1334z" stroke="#c2cfe0" stroke-width="1.4"/></g></svg>